<svg xmlns="http://www.w3.org/2000/svg" viewBox="0 0 512 512">
  <rect width="512" height="512" fill="#667eea" rx="64"/>
  <path fill="#ffffff" d="M256 96c-88.366 0-160 71.634-160 160s71.634 160 160 160 160-71.634 160-160S344.366 96 256 96zm0 280c-66.274 0-120-53.726-120-120s53.726-120 120-120 120 53.726 120 120-53.726 120-120 120z"/>
  <path fill="#ffffff" d="M256 176c-8.837 0-16 7.163-16 16v96c0 6.365 3.773 12.116 9.578 14.614l64 28c7.926 3.478 17.198-.132 20.676-8.058 3.478-7.926-.132-17.198-8.058-20.676L272 280.382V192c0-8.837-7.163-16-16-16z"/>
  <text x="256" y="200" font-family="Arial, sans-serif" font-size="140" font-weight="bold" fill="#ffffff" text-anchor="middle">$</text>
</svg>
